<svg width="191" height="40" viewBox="0 0 191 40" fill="none" xmlns="http://www.w3.org/2000/svg">
<g clip-path="url(#clip0_71_337)">
<path d="M60.7271 39.5273L43.9718 40.0055L38.9699 29.2423H17.7063L22.4251 18.799L58.1299 17.9644C58.1304 19.9081 57.6294 21.819 56.6754 23.5115C55.7214 25.204 54.3468 26.6206 52.6852 27.6239L60.7271 39.5273Z" fill="#EDF2F7"/>
<path d="M58.13 11.2743H5.20518L0 0H46.8738C49.8582 0 52.7203 1.18782 54.8306 3.30216C56.9408 5.41649 58.1263 8.28414 58.1263 11.2743H58.13Z" fill="#EDF2F7"/>
<path d="M84.802 0.205516C88.6441 0.205516 90.5643 2.42946 90.5643 5.11528C90.5643 7.06281 89.4899 9.03399 86.9345 9.72136L90.7458 16.2059H87.0434L83.5206 9.96685H82.0124V16.2004H78.8109V0.198242L84.802 0.205516ZM84.6876 2.86406H82.0124V7.56106H84.6876C86.4717 7.56106 87.2721 6.62275 87.2721 5.17892C87.2721 3.73509 86.4717 2.86406 84.6876 2.86406Z" fill="#EDF2F7"/>
<path d="M93.1705 0.205566H96.372V16.2077H93.1705V0.205566Z" fill="#EDF2F7"/>
<path d="M106.548 0C110.095 0 112.975 1.90208 114.049 5.17889H110.369C109.621 3.63686 108.242 2.88767 106.536 2.88767C103.746 2.88767 101.755 4.92613 101.755 8.1793C101.755 11.4325 103.751 13.4727 106.536 13.4727C108.251 13.4727 109.621 12.7163 110.378 11.1597H114.049C112.975 14.4583 110.095 16.3368 106.548 16.3368C101.953 16.3368 98.4537 12.969 98.4537 8.1793C98.4537 3.38955 101.953 0 106.548 0Z" fill="#EDF2F7"/>
<path d="M126.536 9.39404H119.697V16.2004H116.496V0.198242H119.697V6.78278H126.536V0.205516H129.737V16.2077H126.536V9.39404Z" fill="#EDF2F7"/>
<path d="M132.594 0.205566H136.224L141.306 12.0981L146.388 0.205566H150.001V16.2077H146.798V5.79724L142.52 16.2005H140.095L135.797 5.79724V16.2005H132.594V0.205566Z" fill="#EDF2F7"/>
<path d="M152.856 0.205566H156.057V16.2077H152.856V0.205566Z" fill="#EDF2F7"/>
<path d="M172.57 0.181641V16.2002H169.366L162.117 5.22415V16.2002H158.916V0.181641H162.117L169.366 11.1795V0.181641H172.57Z" fill="#EDF2F7"/>
<path d="M189.423 8.22661C189.423 13.06 186.107 16.2004 181.007 16.2004H175.426V0.198242H181.007C186.107 0.205516 189.423 3.36777 189.423 8.22661ZM180.893 13.4728C184.254 13.4728 186.156 11.5489 186.156 8.22661C186.156 4.90434 184.254 2.90952 180.893 2.90952H178.628V13.4728H180.893Z" fill="#EDF2F7"/>
<path d="M82.0124 23.8452V37.3016H87.2757V39.8474H78.8109V23.8452H82.0124Z" fill="#EDF2F7"/>
<path d="M96.4193 40.0055C91.9146 40.0055 88.2322 36.6141 88.2322 31.8026C88.2322 26.991 91.9146 23.6196 96.4193 23.6196C100.969 23.6196 104.586 27.011 104.586 31.8026C104.586 36.5941 100.947 40.0055 96.4193 40.0055ZM96.4193 37.1415C99.3014 37.1415 101.29 35.0557 101.29 31.8026C101.29 28.5494 99.2941 26.5091 96.4193 26.5091C93.5444 26.5091 91.519 28.5494 91.519 31.8026C91.519 35.0557 93.5154 37.136 96.4193 37.136V37.1415Z" fill="#EDF2F7"/>
<path d="M121.46 28.6582H117.777C117.051 27.3053 115.719 26.5943 114.028 26.5943C111.169 26.5943 109.178 28.6346 109.178 31.8187C109.178 35.0737 111.191 37.0921 114.164 37.0921C116.634 37.0921 118.213 35.6701 118.701 33.4025H113.204V30.9495H121.848V33.7444C121.207 36.9976 118.304 39.9762 114.044 39.9762C109.401 39.9762 105.877 36.6084 105.877 31.8187C105.877 27.0289 109.398 23.6357 114.018 23.6357C117.594 23.6394 120.431 25.4578 121.46 28.6582Z" fill="#EDF2F7"/>
<path d="M123.928 23.8452H127.129V39.8474H123.928V23.8452Z" fill="#EDF2F7"/>
<path d="M135.5 40.0056C132.184 40.0056 129.623 38.2636 129.576 35.2395H133.006C133.099 36.5233 133.944 37.3707 135.431 37.3707C136.917 37.3707 137.832 36.5688 137.832 35.4232C137.832 31.9682 129.6 34.0485 129.623 28.2513C129.623 25.3636 131.955 23.6216 135.249 23.6216C138.543 23.6216 140.761 25.2945 140.966 28.1822H137.444C137.375 27.1275 136.536 26.3038 135.157 26.2801C133.899 26.2347 132.961 26.8529 132.961 28.1586C132.961 31.3663 141.148 29.5806 141.148 35.2159C141.148 37.7308 139.135 40.0056 135.5 40.0056Z" fill="#EDF2F7"/>
<path d="M142.77 23.8452H154.48V26.4347H150.226V39.8401H147.025V26.4347H142.77V23.8452Z" fill="#EDF2F7"/>
<path d="M156.515 23.8452H159.713V39.8474H156.515V23.8452Z" fill="#EDF2F7"/>
<path d="M169.893 23.6396C173.437 23.6396 176.319 25.5417 177.394 28.8185H173.713C172.962 27.2765 171.586 26.5273 169.876 26.5273C167.085 26.5273 165.096 28.5658 165.096 31.8189C165.096 35.0721 167.092 37.1124 169.876 37.1124C171.591 37.1124 172.962 36.3559 173.718 34.7994H177.399C176.325 38.098 173.443 39.9764 169.898 39.9764C165.303 39.9764 161.803 36.6087 161.803 31.8189C161.803 27.0292 165.297 23.6396 169.893 23.6396Z" fill="#EDF2F7"/>
<path d="M185.352 40.0056C182.034 40.0056 179.473 38.2636 179.428 35.2395H182.858C182.949 36.5233 183.797 37.3707 185.283 37.3707C186.769 37.3707 187.684 36.5688 187.684 35.4232C187.684 31.9682 179.452 34.0485 179.473 28.2513C179.473 25.3636 181.807 23.6216 185.1 23.6216C188.392 23.6216 190.612 25.2945 190.817 28.1822H187.299C187.23 27.1275 186.392 26.3038 185.013 26.2801C183.755 26.2347 182.817 26.8529 182.817 28.1586C182.817 31.3663 191.004 29.5806 191.004 35.2159C191 37.7308 188.987 40.0056 185.352 40.0056Z" fill="#EDF2F7"/>
</g>
<defs>
<clipPath id="clip0_71_337">
<rect width="191" height="40" fill="white"/>
</clipPath>
</defs>
</svg>
