<svg width="191" height="40" viewBox="0 0 191 40" fill="none" xmlns="http://www.w3.org/2000/svg">
<g clip-path="url(#clip0_63_583)">
<path d="M60.7271 39.5272L43.9718 40.0055L38.9699 29.2422H17.7063L22.4251 18.7989L58.1299 17.9643C58.1304 19.908 57.6294 21.8189 56.6754 23.5114C55.7214 25.2039 54.3468 26.6205 52.6852 27.6238L60.7271 39.5272Z" fill="#F8FAFC"/>
<path d="M58.13 11.2743H5.20518L0 0H46.8738C49.8582 0 52.7203 1.18782 54.8306 3.30216C56.9408 5.41649 58.1263 8.28414 58.1263 11.2743H58.13Z" fill="#FFA500"/>
<path d="M84.802 0.205485C88.6441 0.205485 90.5643 2.42942 90.5643 5.11525C90.5643 7.06278 89.4899 9.03396 86.9345 9.72133L90.7458 16.2058H87.0434L83.5206 9.96682H82.0124V16.2004H78.8109V0.198212L84.802 0.205485ZM84.6876 2.86403H82.0124V7.56103H84.6876C86.4717 7.56103 87.2721 6.62272 87.2721 5.17889C87.2721 3.73506 86.4717 2.86403 84.6876 2.86403Z" fill="#FFA500"/>
<path d="M93.1705 0.20549H96.372V16.2077H93.1705V0.20549Z" fill="#FFA500"/>
<path d="M106.548 0C110.095 0 112.975 1.90208 114.049 5.17889H110.369C109.621 3.63686 108.242 2.88767 106.536 2.88767C103.746 2.88767 101.755 4.92613 101.755 8.1793C101.755 11.4325 103.751 13.4727 106.536 13.4727C108.251 13.4727 109.621 12.7163 110.378 11.1597H114.049C112.975 14.4583 110.095 16.3368 106.548 16.3368C101.953 16.3368 98.4537 12.969 98.4537 8.1793C98.4537 3.38955 101.953 0 106.548 0Z" fill="#FFA500"/>
<path d="M126.536 9.39401H119.697V16.2004H116.496V0.198212H119.697V6.78275H126.536V0.205485H129.737V16.2077H126.536V9.39401Z" fill="#FFA500"/>
<path d="M132.594 0.20549H136.224L141.306 12.098L146.388 0.20549H150.001V16.2077H146.798V5.79716L142.52 16.2004H140.095L135.797 5.79716V16.2004H132.594V0.20549Z" fill="#FFA500"/>
<path d="M152.856 0.20549H156.057V16.2077H152.856V0.20549Z" fill="#FFA500"/>
<path d="M172.57 0.181839V16.2004H169.366L162.117 5.22434V16.2004H158.916V0.181839H162.117L169.366 11.1797V0.181839H172.57Z" fill="#FFA500"/>
<path d="M189.423 8.22658C189.423 13.06 186.107 16.2004 181.007 16.2004H175.426V0.198212H181.007C186.107 0.205485 189.423 3.36774 189.423 8.22658ZM180.893 13.4727C184.254 13.4727 186.156 11.5489 186.156 8.22658C186.156 4.90431 184.254 2.90949 180.893 2.90949H178.628V13.4727H180.893Z" fill="#FFA500"/>
<path d="M82.0124 23.8451V37.3014H87.2757V39.8472H78.8109V23.8451H82.0124Z" fill="#F8FAFC"/>
<path d="M96.4193 40.0055C91.9146 40.0055 88.2322 36.6141 88.2322 31.8025C88.2322 26.991 91.9146 23.6196 96.4193 23.6196C100.969 23.6196 104.586 27.011 104.586 31.8025C104.586 36.5941 100.947 40.0055 96.4193 40.0055ZM96.4193 37.1414C99.3014 37.1414 101.29 35.0557 101.29 31.8025C101.29 28.5493 99.2941 26.5091 96.4193 26.5091C93.5444 26.5091 91.519 28.5493 91.519 31.8025C91.519 35.0557 93.5154 37.136 96.4193 37.136V37.1414Z" fill="#F8FAFC"/>
<path d="M121.46 28.6585H117.777C117.051 27.3055 115.719 26.5945 114.028 26.5945C111.169 26.5945 109.178 28.6348 109.178 31.8189C109.178 35.0739 111.191 37.0923 114.164 37.0923C116.634 37.0923 118.213 35.6703 118.701 33.4027H113.204V30.9497H121.848V33.7446C121.207 36.9978 118.304 39.9764 114.044 39.9764C109.401 39.9764 105.877 36.6086 105.877 31.8189C105.877 27.0291 109.398 23.636 114.018 23.636C117.594 23.6396 120.431 25.458 121.46 28.6585Z" fill="#F8FAFC"/>
<path d="M123.928 23.8451H127.129V39.8472H123.928V23.8451Z" fill="#F8FAFC"/>
<path d="M135.5 40.0055C132.184 40.0055 129.623 38.2634 129.576 35.2393H133.006C133.099 36.5232 133.944 37.3705 135.431 37.3705C136.917 37.3705 137.832 36.5686 137.832 35.423C137.832 31.968 129.6 34.0483 129.623 28.2511C129.623 25.3635 131.955 23.6214 135.249 23.6214C138.543 23.6214 140.761 25.2944 140.966 28.182H137.444C137.375 27.1273 136.536 26.3036 135.157 26.2799C133.899 26.2345 132.961 26.8528 132.961 28.1584C132.961 31.3661 141.148 29.5804 141.148 35.2157C141.148 37.7306 139.135 40.0055 135.5 40.0055Z" fill="#F8FAFC"/>
<path d="M142.77 23.8451H154.48V26.4345H150.226V39.84H147.025V26.4345H142.77V23.8451Z" fill="#F8FAFC"/>
<path d="M156.515 23.8451H159.713V39.8472H156.515V23.8451Z" fill="#F8FAFC"/>
<path d="M169.893 23.6396C173.437 23.6396 176.319 25.5417 177.394 28.8185H173.713C172.962 27.2764 171.586 26.5273 169.876 26.5273C167.085 26.5273 165.096 28.5657 165.096 31.8189C165.096 35.0721 167.092 37.1123 169.876 37.1123C171.591 37.1123 172.962 36.3559 173.718 34.7993H177.399C176.325 38.0979 173.443 39.9764 169.898 39.9764C165.303 39.9764 161.803 36.6086 161.803 31.8189C161.803 27.0291 165.297 23.6396 169.893 23.6396Z" fill="#F8FAFC"/>
<path d="M185.352 40.0055C182.034 40.0055 179.473 38.2634 179.428 35.2393H182.858C182.949 36.5232 183.797 37.3705 185.283 37.3705C186.769 37.3705 187.684 36.5686 187.684 35.423C187.684 31.968 179.452 34.0483 179.473 28.2511C179.473 25.3635 181.807 23.6214 185.1 23.6214C188.392 23.6214 190.612 25.2944 190.817 28.182H187.299C187.23 27.1273 186.392 26.3036 185.013 26.2799C183.755 26.2345 182.817 26.8528 182.817 28.1584C182.817 31.3661 191.004 29.5804 191.004 35.2157C191 37.7306 188.987 40.0055 185.352 40.0055Z" fill="#F8FAFC"/>
</g>
<defs>
<clipPath id="clip0_63_583">
<rect width="191" height="40" fill="white"/>
</clipPath>
</defs>
</svg>
