<svg width="24" height="24" viewBox="0 0 24 24" fill="none" xmlns="http://www.w3.org/2000/svg">
<path d="M21.3923 17.8597C21.0038 17.4772 16.2961 15.6562 15.4418 15.3127C14.5921 14.9752 14.2531 14.04 14.2531 14.04C14.2531 14.04 13.8706 14.2515 13.8706 13.6575C13.8706 13.0627 14.2531 14.04 14.6356 11.7465C14.6356 11.7465 15.6968 11.4487 15.4861 8.98646H15.2311C15.2311 8.98646 15.8686 6.35396 15.2311 5.46296C14.5913 4.57196 14.3408 3.97796 12.9361 3.55196C11.5336 3.12671 12.0436 3.21146 11.0251 3.25496C10.0051 3.29771 9.1561 3.84971 9.1561 4.14596C9.1561 4.14596 8.5186 4.18871 8.2651 4.44371C8.0101 4.69871 7.5856 5.88671 7.5856 6.18371C7.5856 6.48071 7.79785 8.47871 8.0101 8.90171L7.75735 8.98421C7.5451 11.4472 8.60635 11.7457 8.60635 11.7457C8.98885 14.0392 9.37135 13.062 9.37135 13.6567C9.37135 14.2507 8.98885 14.0392 8.98885 14.0392C8.98885 14.0392 8.6491 14.9737 7.8001 15.312C6.9511 15.6517 2.2381 17.4772 1.85485 17.859C1.47235 18.249 1.5151 20.031 1.5151 20.031H10.5421L11.2006 17.436L10.6156 16.851L11.6228 15.8422L12.6301 16.8502L12.0451 17.4352L12.7036 20.0302H21.7306C21.7306 20.0302 21.7778 18.2467 21.3909 17.8575L21.3923 17.8597Z" fill="#1F2933"/>
</svg>
