<svg width="24" height="24" viewBox="0 0 24 24" fill="none" xmlns="http://www.w3.org/2000/svg">
<g clip-path="url(#clip0_235_1183)">
<path d="M18.9758 3.16313C18.9546 3.11432 18.9201 3.07291 18.8765 3.04394C18.8328 3.01498 18.782 2.99971 18.7301 3H11.1247C11.079 3.00008 11.0341 3.01197 10.994 3.03457C10.954 3.05717 10.92 3.08977 10.8954 3.12938L5.048 12.6919C5.01985 12.7335 5.00341 12.7823 5.00047 12.833C4.99754 12.8837 5.00824 12.9342 5.03139 12.979C5.05454 13.0237 5.08924 13.0611 5.13167 13.0868C5.1741 13.1126 5.22261 13.1258 5.27185 13.125H9.45946L5.76323 20.5781C5.74201 20.6224 5.73203 20.6716 5.73424 20.721C5.73644 20.7703 5.75075 20.8183 5.77583 20.8604C5.80091 20.9026 5.83594 20.9375 5.87766 20.9619C5.91937 20.9863 5.96641 20.9994 6.01438 21H7.65229C7.69019 21.0003 7.72771 20.9924 7.76249 20.9769C7.79727 20.9614 7.82854 20.9386 7.8543 20.91L17.447 10.2281C17.4851 10.1881 17.5108 10.1373 17.5206 10.0822C17.5305 10.0271 17.5242 9.97027 17.5025 9.9189C17.4808 9.86753 17.4447 9.82401 17.3988 9.79392C17.3529 9.76383 17.2994 9.74853 17.245 9.75H13.5652L18.9321 3.46125C18.9667 3.4213 18.9892 3.37183 18.997 3.31889C19.0048 3.26595 18.9974 3.21182 18.9758 3.16313Z" fill="#1F2933"/>
</g>
<defs>
<clipPath id="clip0_235_1183">
<rect width="24" height="24" fill="white"/>
</clipPath>
</defs>
</svg>
