<svg width="24" height="24" viewBox="0 0 24 24" fill="none" xmlns="http://www.w3.org/2000/svg">
<path d="M3.75 1.07812V1.92188H4.82812V2.57812H5.67188V1.92188H6.75V1.07812H3.75ZM3.36563 3.42188L1.98656 13.0781H6.32812V6.77344H4.47656V4.47656H6.32812V3.42188H3.36563ZM8.67188 6.42188V8.57812H12.3281V6.42188H8.67188ZM13.1719 6.42188V8.57812H16.8281V6.42188H13.1719ZM17.6719 6.42188V8.57812H21.3281V6.42188H17.6719ZM8.67188 9.42188V11.5781H12.3281V9.42188H8.67188ZM13.1719 9.42188V11.5781H16.8281V9.42188H13.1719ZM17.6719 9.42188V11.5781H21.3281V9.42188H17.6719ZM8.67188 12.4219V14.5781H12.3281V12.4219H8.67188ZM13.1719 12.4219V14.5781H14.0766L15.5766 13.0781H16.8281V12.4219H13.1719ZM17.6719 12.4219V13.0781H21.3281V12.4219H17.6719ZM1.27594 13.9219L2.40609 19.0078C3.59766 18.6609 4.95469 18.3281 6 18.3281C7.13438 18.3281 8.16562 18.7313 9.15 19.1063C10.1344 19.4813 11.0719 19.8281 12 19.8281C12.9281 19.8281 13.8656 19.4813 14.85 19.1063C15.7406 18.7688 16.6734 18.4031 17.6859 18.3375L15.6188 17.6484L15.8812 16.8516L17.5781 17.4141V16.1719H16.7812V15.3281H17.5781V13.9219H15.9234L14.4234 15.4219H7.2375L6.4875 13.9219H1.27594ZM18.4219 13.9219V15.3281H19.2188V16.1719H18.4219V17.4141L20.1188 16.8516L20.3812 17.6484L18.3187 18.3375C18.8859 18.3703 19.5234 18.4828 20.1656 18.6281C20.4188 18.2953 20.6719 17.9109 20.9203 17.5031C21.6187 16.3359 22.2422 14.9766 22.6453 13.9219H18.4219ZM6 19.0781C4.86562 19.0781 3.36281 19.4672 2.10516 19.8469C1.63547 19.9875 1.20234 20.1281 0.84375 20.2547V21.1453C1.23562 21.0047 1.76109 20.8313 2.34891 20.6531C3.57562 20.2828 5.07188 19.9219 6 19.9219C6.92812 19.9219 7.86563 20.2687 8.85 20.6437C9.83438 21.0187 10.8656 21.4219 12 21.4219C13.1344 21.4219 14.1656 21.0187 15.15 20.6437C16.1344 20.2687 17.0719 19.9219 18 19.9219C18.9281 19.9219 20.4234 20.2828 21.6516 20.6531C22.2375 20.8313 22.7625 21.0047 23.1562 21.1453V20.2547C22.7953 20.1328 22.3641 19.9875 21.8953 19.8469C20.6391 19.4672 19.1344 19.0781 18 19.0781C16.8656 19.0781 15.8344 19.4813 14.85 19.8563C13.8656 20.2313 12.9281 20.5781 12 20.5781C11.0719 20.5781 10.1344 20.2313 9.15 19.8563C8.16562 19.4813 7.13438 19.0781 6 19.0781ZM6 20.7656C4.86562 20.7656 3.36281 21.1547 2.10516 21.5344C1.63547 21.675 1.20234 21.8156 0.84375 21.9422V22.8328C1.23562 22.6922 1.76109 22.5188 2.34891 22.3406C3.57562 21.9703 5.07188 21.6094 6 21.6094C6.92812 21.6094 7.86563 21.9562 8.85 22.3312C9.83438 22.7062 10.8656 23.1094 12 23.1094C13.1344 23.1094 14.1656 22.7062 15.15 22.3312C16.1344 21.9562 17.0719 21.6094 18 21.6094C18.9281 21.6094 20.4234 21.9703 21.6516 22.3406C22.2375 22.5188 22.7625 22.6922 23.1562 22.8328V21.9422C22.7953 21.8203 22.3641 21.675 21.8953 21.5344C20.6391 21.1547 19.1344 20.7656 18 20.7656C16.8656 20.7656 15.8344 21.1688 14.85 21.5438C13.8656 21.9188 12.9281 22.2656 12 22.2656C11.0719 22.2656 10.1344 21.9188 9.15 21.5438C8.16562 21.1688 7.13438 20.7656 6 20.7656Z" fill="#1F2933"/>
</svg>
