<svg width="24" height="24" viewBox="0 0 24 24" fill="none" xmlns="http://www.w3.org/2000/svg">
<path d="M12 20.842C11.9093 20.842 11.8137 20.8337 11.713 20.817C11.6123 20.8003 11.519 20.7753 11.433 20.742C9.46433 19.992 7.9 18.72 6.74 16.926C5.58 15.132 5 13.19 5 11.1V6.81699C5 6.47699 5.09833 6.16932 5.295 5.89399C5.49167 5.61865 5.74333 5.41866 6.05 5.29399L11.435 3.29399C11.6297 3.22332 11.818 3.18799 12 3.18799C12.182 3.18799 12.3707 3.22332 12.566 3.29399L17.95 5.29399C18.2567 5.41866 18.5083 5.61865 18.705 5.89399C18.9017 6.16932 19 6.47699 19 6.81699V11.1C19 13.19 18.42 15.132 17.26 16.926C16.1 18.72 14.5357 19.992 12.567 20.742C12.4803 20.7753 12.387 20.8003 12.287 20.817C12.187 20.8337 12.0913 20.842 12 20.842Z" fill="#1F2933"/>
</svg>
