<svg width="24" height="19" viewBox="0 0 24 19" fill="none" xmlns="http://www.w3.org/2000/svg">
<path d="M12.1275 3.16172L8.4975 6.07109C7.89375 6.55352 7.7775 7.42188 8.235 8.0416C8.71875 8.70215 9.66 8.83203 10.3088 8.33105L14.0325 5.46621C14.295 5.26582 14.67 5.31035 14.8763 5.57012C15.0825 5.82988 15.0338 6.20098 14.7713 6.40508L13.9875 7.00625L20.6325 13.0625H22.2C23.1938 13.0625 24 12.2646 24 11.2812V6.53125C24 5.54785 23.1938 4.75 22.2 4.75H19.1737L19.0275 4.65723L16.305 2.93164C15.7312 2.56797 15.06 2.375 14.3775 2.375C13.56 2.375 12.765 2.65332 12.1275 3.16172ZM12.9825 7.77813L11.0438 9.26992C9.8625 10.1828 8.14875 9.94531 7.26375 8.74297C6.43125 7.61113 6.64125 6.03027 7.74 5.15078L10.86 2.65332C10.425 2.47148 9.95625 2.37871 9.48 2.37871C8.775 2.375 8.08875 2.58281 7.5 2.96875L4.8 4.75H1.8C0.80625 4.75 0 5.54785 0 6.53125V11.2812C0 12.2646 0.80625 13.0625 1.8 13.0625H5.8575L9.285 16.1574C10.02 16.8217 11.1562 16.7697 11.8275 16.0424C12.0338 15.816 12.1725 15.5525 12.2438 15.2779L12.8813 15.8568C13.6125 16.5211 14.7525 16.4729 15.4237 15.7492C15.5925 15.5674 15.7163 15.3559 15.795 15.1369C16.5225 15.6193 17.5125 15.5191 18.1238 14.8586C18.795 14.135 18.7463 13.0068 18.015 12.3426L12.9825 7.77813Z" fill="#1F2933"/>
</svg>
