<svg width="24" height="24" viewBox="0 0 24 24" fill="none" xmlns="http://www.w3.org/2000/svg">
<path d="M20.8 4.79998V17.6C20.8 19.36 19.36 20.8 17.6 20.8H6.39995C4.63995 20.8 3.19995 19.36 3.19995 17.6V4.79998C3.19995 3.03998 4.63995 1.59998 6.39995 1.59998H17.6C19.36 1.59998 20.8 3.03998 20.8 4.79998ZM14.4 16.8C14.4 17.68 15.12 18.4 16 18.4C16.88 18.4 17.6 17.68 17.6 16.8C17.6 15.92 16.88 15.2 16 15.2C15.12 15.2 14.4 15.92 14.4 16.8ZM9.59995 16.8C9.59995 15.92 8.87995 15.2 7.99995 15.2C7.11995 15.2 6.39995 15.92 6.39995 16.8C6.39995 17.68 7.11995 18.4 7.99995 18.4C8.87995 18.4 9.59995 17.68 9.59995 16.8ZM4.79995 7.19998L4.81595 12C4.81595 12.448 5.18395 12.8 5.61595 12.8H10.416C10.848 12.8 11.216 12.448 11.216 12L11.184 7.19998C11.184 6.75198 10.832 6.39998 10.384 6.39998H5.59995C5.15195 6.39998 4.79995 6.75198 4.79995 7.19998ZM12.8 7.19998L12.816 12C12.816 12.448 13.184 12.8 13.616 12.8H18.416C18.848 12.8 19.216 12.448 19.216 12L19.184 7.19998C19.184 6.75198 18.832 6.39998 18.384 6.39998H13.6C13.152 6.39998 12.8 6.75198 12.8 7.19998ZM6.39995 3.99998C6.39995 4.44798 6.75195 4.79998 7.19995 4.79998H16.8C17.248 4.79998 17.6 4.44798 17.6 3.99998C17.6 3.55198 17.248 3.19998 16.8 3.19998H7.19995C6.75195 3.19998 6.39995 3.55198 6.39995 3.99998Z" fill="#1F2933"/>
</svg>
