<svg width="24" height="24" viewBox="0 0 24 24" fill="none" xmlns="http://www.w3.org/2000/svg">
<path d="M3 18.385V8.77199C3 8.43199 3.09333 8.12766 3.28 7.85899C3.46667 7.58965 3.71333 7.39299 4.02 7.26899L11.404 4.31899C11.5987 4.23165 11.7973 4.18799 12 4.18799C12.2027 4.18799 12.4013 4.23132 12.596 4.31799L19.981 7.26799C20.2877 7.39265 20.5343 7.58932 20.721 7.85799C20.907 8.12799 21 8.43265 21 8.77199V18.384C21 18.8307 20.8427 19.2117 20.528 19.527C20.2133 19.8417 19.8323 19.999 19.385 19.999H16V12.615C16 12.435 15.9423 12.2873 15.827 12.172C15.7117 12.0567 15.5643 11.9993 15.385 12H8.615C8.43567 12 8.28833 12.0577 8.173 12.173C8.05767 12.2883 8 12.436 8 12.616V20H4.616C4.168 20 3.78667 19.8427 3.472 19.528C3.15733 19.2133 3 18.8323 3 18.385ZM9.558 20V18.462H11.096V20H9.558ZM11.231 17V15.462H12.769V17H11.231ZM12.904 20V18.462H14.442V20H12.904Z" fill="#1F2933"/>
</svg>
